<svg width="2160" height="2160" viewBox="0 0 2160 2160" fill="none" xmlns="http://www.w3.org/2000/svg">
<mask id="mask0" mask-type="alpha" maskUnits="userSpaceOnUse" x="0" y="0" width="2160" height="2160">
<rect width="2160" height="2160" fill="url(#paint0_linear)"/>
</mask>
<g mask="url(#mask0)">
<rect width="2160" height="2187.65" fill="url(#paint1_linear)"/>
<path d="M706.48 702.807L681.473 643.067L695.514 406.188L697.45 373.539L755.801 231.133L798.175 189.465L880.84 108.179L1051.73 60.2471L1248.31 159.583L1281.66 231.133H1369.19L1463.66 335.332L1506.73 444.394L1490.06 665.296L1470.61 697.25L1438.65 706.281L868.336 729.899L706.48 702.807Z" fill="#0C59AD"/>
<path d="M880.84 108.179L1051.73 60.2471L1248.31 159.583L1281.66 231.133M880.84 108.179L1057.28 133.186L1262.9 263.782L1281.66 231.133M880.84 108.179L798.175 189.465M1281.66 231.133H1369.19L1463.66 335.332L1506.73 444.394L1490.06 665.296L1470.61 697.25L1438.65 706.281L868.336 729.899L706.48 702.807L681.473 643.067L695.514 406.188M798.175 189.465L755.801 231.133L697.45 373.539L695.514 406.188M798.175 189.465L873.199 203.347L964.894 275.592M695.514 406.188L746.076 396.462L786.366 406.188M1290.69 297.126L1395.58 335.332L1424.76 472.18L1410.17 590.272" stroke="black" stroke-width="8"/>
<path d="M1870.25 2434.29L1870.1 2433.89L1869.86 2433.53L1806.32 2337.67L2224.09 2412.41L2420.64 2975.28H2080.3L1870.25 2434.29ZM255.449 2528.21L255.486 2527.94V2527.67V2410.86L575.489 2165.84L591.748 2556.72L396.291 3094.89H178.603L255.449 2528.21ZM1447.21 706.464L1487.3 688.924L1503.3 754.865L1486.22 820.477L1486.19 820.579L1459.92 911.503L1403.04 914.149L1400.3 914.276L1399.43 916.88L1372.34 998.155L1372.14 998.771V999.42V1200.18V1202.87L1374.64 1203.88L1502.66 1255.7L1433.25 1517.85L842.26 1525.29L790.156 1238.68L861.759 1203.77L864.432 1202.47L863.955 1199.53L831.306 998.778L831.204 998.156L830.917 997.595L789.237 916.319L788.18 914.257L785.864 914.149L729.224 911.515L710.404 820.774L710.383 820.676L710.358 820.579L693.245 754.865L709.131 689.414L739.265 706.29L745.22 709.624V702.8V513.102L789.304 378.782L852.469 285.409L952.235 217.759H1202.21L1278.58 256.627L1353.15 331.88L1387.54 444.687L1441.69 703.619L1442.7 708.438L1447.21 706.464Z" fill="#ABD9F6" stroke="black" stroke-width="8"/>
<path d="M1861.87 2433.89V2986.57H439.222L477.759 2528L477.801 2527.5L477.717 2527L453.404 2383.21L452.764 2379.42L448.958 2379.9L252.059 2404.78L105.235 2341.85L255.064 1499.5L784.086 1241.63L906.204 1451.57L907.015 1452.96L908.567 1453.4L1074.61 1500.64L1075.15 1500.79H1075.71H1197.11H1197.73L1198.32 1500.6L1346.31 1453.37L1347.43 1453.01L1348.18 1452.11L1508.64 1258.12L1989.2 1452.62L2328.57 2323.52L2225.58 2404.97L1865.59 2429.9L1861.87 2430.15V2433.89Z" fill="#0C59AD" stroke="black" stroke-width="8"/>
<path fill-rule="evenodd" clip-rule="evenodd" d="M1986.2 1456.09L1510.14 1262.96L1473.02 1307.1L1986.2 1456.09ZM782.243 1246.9L259.021 1501.74L824.381 1317.64L782.243 1246.9Z" fill="#3274BE"/>
<path d="M1072.27 573.416L1072.83 573.458L1073.38 573.344L1237.41 539.431L1388.32 555.066L1419.46 663.265L1380.3 595.218L1375.44 586.774L1372.96 596.197L1352.16 675.399L1154.24 689.632L1088.18 608.579L1084.99 604.672L1081.91 608.661L1016.94 692.782L922.282 704.359H820.078L777.429 621.092L773.14 612.717L770.086 621.617L758.321 655.904L767.061 585.982L895.682 560.258L1072.27 573.416Z" fill="#8BCCF4" stroke="black" stroke-width="8"/>
<path d="M774.313 621.527L750 692.382L776.313 634.115L818.076 706.97L774.313 621.527Z" fill="#5E96D5"/>
<path d="M1377.27 595.825L1355.74 677.794L1379.27 608.413L1432.85 692.382L1377.27 595.825Z" fill="#5E96D5"/>
<path d="M840.368 507.435L992.511 464.039L1012.67 501.126L824.861 536.117L840.368 507.435ZM1311.83 485.121L1331.02 511.043L1134.62 500.397L1154.39 463.651L1311.83 485.121Z" fill="#8BCCF4" stroke="black" stroke-width="8"/>
<path d="M1036.42 769.631L1102.48 797.952L1164.52 769.432" stroke="black" stroke-width="8"/>
<path d="M1240.82 908.826L1175.05 965.498H1036.7L994.294 926.235L1035.97 909.76L1191.3 903.777L1240.82 908.826Z" fill="#8BCCF4" stroke="black" stroke-width="8"/>
<path d="M889.144 905.029L899.208 937.444L920.152 948.817" stroke="black" stroke-width="8"/>
<path d="M883.074 1041.23L948.591 1091.2L1030.56 1123L1076.71 1132.53L1091.76 1136.04L1004.47 1140.55L950.797 1126.51L886.084 1109.95H868.025L855.484 1121.99L835.417 1000.09L883.074 1041.23Z" fill="#5E96D5"/>
<path d="M948.59 1091.2L883.074 1041.23L832.407 1000.09M1091.76 1136.04L1076.71 1132.53L1030.56 1123M1310.98 1060.29L1346.1 1026.18L1372.18 1000.09" stroke="black" stroke-width="8"/>
<path d="M912.76 1563.84L913.394 1563.11L1217.23 1585.44L1115.18 1686.83L1092.4 1700.67L1094.18 1706.22L1280.81 1692.29L1472.69 1829.63L1282.22 1879.09L1053.27 1726.46L1051.68 1725.4L1050.05 1726.39L983.187 1767L798.315 1813.5L798.791 1819.4L958.344 1833.02L788.255 1919.58L781.739 1922.89L788.707 1925.11L995.978 1991.04L1025.85 2067.37L1026.98 2070.27L1029.83 2069.03L1079.76 2047.35L1371.97 2126.13L1141.59 2226.58L769.267 2182.15L937.085 2109.29L944.255 2106.18L936.843 2103.7L795.547 2056.35L746.911 1944.19L745.642 1941.26L742.798 1942.71L695.02 1967.03L464.338 2024.18L364.12 1918.62L595.247 1802.03L695.022 1810.55L696.514 1810.67L697.513 1809.56C734.619 1768.1 788.84 1706.2 833.775 1654.67C856.245 1628.91 876.396 1605.73 890.93 1589C898.196 1580.63 904.059 1573.87 908.105 1569.21C910.128 1566.88 911.697 1565.07 912.76 1563.84ZM1471.86 1926.77L1423.37 1983.71L1420.23 1987.4L1424.93 1988.57L1745.44 2068.23L1644.1 2202.91L1375.43 2064.82L1387.79 2012.07L1388.55 2008.85L1385.26 2008.41L995.096 1957.13L1173.02 1875.72L1471.86 1926.77ZM1645.37 1878.87L1434.95 1720.55L1598.7 1653.04L1805.79 1808.02L1645.37 1878.87Z" fill="#407EC4" stroke="black" stroke-width="6"/>
<path d="M870.5 641L926.5 622L970.5 641M1201 622L1243 599.5L1293 622" stroke="black" stroke-width="8"/>
</g>
<defs>
<linearGradient id="paint0_linear" x1="-105.185" y1="1602.2" x2="2369.6" y2="266.415" gradientUnits="userSpaceOnUse">
<stop stop-color="#514B94"/>
<stop offset="0.454551" stop-color="#3E3882"/>
<stop offset="0.455324" stop-color="#385682"/>
<stop offset="1" stop-color="#55545F"/>
</linearGradient>
<linearGradient id="paint1_linear" x1="-105.185" y1="1622.72" x2="2383.7" y2="296.296" gradientUnits="userSpaceOnUse">
<stop stop-color="#674B94"/>
<stop offset="0.454551" stop-color="#3E3882"/>
<stop offset="0.455324" stop-color="#385682"/>
<stop offset="1" stop-color="#55565E"/>
</linearGradient>
</defs>
</svg>
